<?xml version="1.0" encoding="UTF-8"?>
<!DOCTYPE svg PUBLIC "-//W3C//DTD SVG 1.1//EN" "http://www.w3.org/Graphics/SVG/1.1/DTD/svg11.dtd">
<!-- Creator: CorelDRAW X7 -->
<svg xmlns="http://www.w3.org/2000/svg" xml:space="preserve" width="1.57046in" height="1.57054in" version="1.1" style="shape-rendering:geometricPrecision; text-rendering:geometricPrecision; image-rendering:optimizeQuality; fill-rule:evenodd; clip-rule:evenodd"
viewBox="0 0 1570 1571"
 xmlns:xlink="http://www.w3.org/1999/xlink">
 <defs>
  <style type="text/css">
   <![CDATA[
    .fil0 {fill:#FEFEFE}
   ]]>
  </style>
 </defs>
 <g id="Layer_x0020_1">
  <metadata id="CorelCorpID_0Corel-Layer"/>
  <g id="_2761531884864">
   <g>
    <g>
     <path class="fil0" d="M1566 695c-4,-8 -9,-15 -15,-22l-196 -196c-26,-25 -67,-25 -92,0 -26,26 -26,67 0,93l84 84 -365 0c-37,0 -66,30 -66,66 0,36 29,65 66,65l365 0 -84 85c-26,25 -26,67 0,92 12,13 29,20 46,20 17,0 33,-7 46,-20l196 -196c6,-6 11,-13 15,-21 6,-16 6,-34 0,-50z"/>
     <path class="fil0" d="M1112 916c-36,0 -65,29 -65,66l0 327 -262 0 0 -1047c0,-29 -19,-55 -46,-63l-228 -68 536 0 0 327c0,36 29,66 65,66 37,0 66,-30 66,-66l0 -393c0,-36 -29,-65 -66,-65l-1047 0c-2,0 -4,1 -6,1 -3,1 -6,1 -9,2 -7,2 -13,4 -19,8 -1,1 -3,1 -5,2 0,0 0,1 -1,1 -7,6 -13,13 -17,21 -1,2 -1,4 -2,6 -2,5 -4,9 -5,15 -1,2 0,4 0,6 0,1 -1,2 -1,3l0 1309c0,31 22,58 53,64l654 131c4,1 9,2 13,2 15,0 30,-6 41,-15 15,-13 24,-31 24,-51l0 -65 327 0c37,0 66,-30 66,-66l0 -392c0,-37 -29,-66 -66,-66z"/>
    </g>
   </g>
  </g>
 </g>
</svg>
