<?xml version="1.0" encoding="UTF-8"?>
<!DOCTYPE svg PUBLIC "-//W3C//DTD SVG 1.1//EN" "http://www.w3.org/Graphics/SVG/1.1/DTD/svg11.dtd">
<!-- Creator: CorelDRAW X7 -->
<svg xmlns="http://www.w3.org/2000/svg" xml:space="preserve" width="2.79517in" height="2.32165in" version="1.1" style="shape-rendering:geometricPrecision; text-rendering:geometricPrecision; image-rendering:optimizeQuality; fill-rule:evenodd; clip-rule:evenodd"
viewBox="0 0 7536 6260"
 xmlns:xlink="http://www.w3.org/1999/xlink">
 <defs>
  <style type="text/css">
   <![CDATA[
    .fil0 {fill:#FEFEFE}
   ]]>
  </style>
 </defs>
 <g id="Layer_x0020_1">
  <metadata id="CorelCorpID_0Corel-Layer"/>
  <g id="_1979794443536">
   <g>
    <g>
     <path class="fil0" d="M7113 2539l12 2 -5043 0 1585 -1588c77,-78 120,-183 120,-293 0,-111 -43,-215 -120,-293l-247 -247c-77,-77 -181,-120 -291,-120 -110,0 -214,43 -291,120l-2718 2717c-78,78 -120,182 -120,292 0,111 42,215 120,293l2718 2718c77,77 181,120 291,120 110,0 214,-43 291,-120l247 -247c77,-78 120,-181 120,-291 0,-111 -43,-209 -120,-286l-1603 -1598 5054 0c228,0 418,-196 418,-423l0 -349c0,-227 -196,-407 -423,-407z"/>
    </g>
   </g>
   <g>
   </g>
   <g>
   </g>
   <g>
   </g>
   <g>
   </g>
   <g>
   </g>
   <g>
   </g>
   <g>
   </g>
   <g>
   </g>
   <g>
   </g>
   <g>
   </g>
   <g>
   </g>
   <g>
   </g>
   <g>
   </g>
   <g>
   </g>
   <g>
   </g>
  </g>
 </g>
</svg>
